# xmcd
#
# Track frame offsets:
# 150
# 22452
# 38195
# 57307
# 83042
# 98975
# 112682
# 130195
# 148710
# 167342
#
# Disc length: 2525 seconds
#
#
# Revision: 0
# Processed by: cddbd v1.5.2PL0 Copyright (c) Steve Scherf et al.
# Submitted via: Nero 7, 11, 10, 0 
#
DISCID=8009db0a
DTITLE=Will Smokey Logg and The Flamethrowers - Ghosts Of The Totems
DYEAR=1997
DGENRE=Blues
TTITLE0=Evil Red Triple Seven Slots
TTITLE1=Great Horny Toads
TTITLE2=Crossfire Saloon
TTITLE3=Nine And Half Hours Past Midnight
TTITLE4=Marjoree Marjoree
TTITLE5=Ghosts Of The Totems
TTITLE6=Sawed-Off Shotgun
TTITLE7=Janet Laurae
TTITLE8=Congratulations
TTITLE9=Goodbye Mr. Tee, Farewell Mr. Gale
EXTD=
EXTT0=Evil Red Triple Seven Slots
EXTT1=Great Horny Toads
EXTT2=Crossfire Saloon
EXTT3=Nine And Half Hours Past Midnight
EXTT4=Marjoree Marjoree
EXTT5=Ghosts Of The Totems
EXTT6=Sawed-Off Shotgun
EXTT7=Janet Laurae
EXTT8=Congratulations
EXTT9=Goodbye Mr. Tee, Farewell Mr. Gale
PLAYORDER=
